<mxfile host="app.diagrams.net" modified="2022-06-04T02:33:09.087Z" agent="5.0 (X11)" etag="h5AoD-5H6RFOuhHy29o0" version="19.0.0" type="github">
  <diagram id="A7jlSvWX7UoPv8jhLJ33" name="Page-1">
    <mxGraphModel dx="2272" dy="761" grid="1" gridSize="10" guides="1" tooltips="1" connect="1" arrows="1" fold="1" page="1" pageScale="1" pageWidth="850" pageHeight="1100" math="0" shadow="0">
      <root>
        <mxCell id="0" />
        <mxCell id="1" parent="0" />
        <mxCell id="fOmn5NKXTGddU6EdoQ0m-1" value="" style="shape=image;verticalLabelPosition=bottom;labelBackgroundColor=default;verticalAlign=top;aspect=fixed;imageAspect=0;image=data:image/png,iVBORw0KGgoAAAANSUhEUgAAAMgAAADICAYAAACtWK6eAAAACXBIWXMAAAsTAAALEwEAmpwYAAAFHGlUWHRYTUw6Y29tLmFkb2JlLnhtcAAAAAAAPD94cGFja2V0IGJlZ2luPSLvu78iIGlkPSJXNU0wTXBDZWhpSHpyZVN6TlRjemtjOWQiPz4gPHg6eG1wbWV0YSB4bWxuczp4PSJhZG9iZTpuczptZXRhLyIgeDp4bXB0az0iQWRvYmUgWE1QIENvcmUgNS42LWMxNDIgNzkuMTYwOTI0LCAyMDE3LzA3LzEzLTAxOjA2OjM5ICAgICAgICAiPiA8cmRmOlJERiB4bWxuczpyZGY9Imh0dHA6Ly93d3cudzMub3JnLzE5OTkvMDIvMjItcmRmLXN5bnRheC1ucyMiPiA8cmRmOkRlc2NyaXB0aW9uIHJkZjphYm91dD0iIiB4bWxuczp4bXA9Imh0dHA6Ly9ucy5hZG9iZS5jb20veGFwLzEuMC8iIHhtbG5zOmRjPSJodHRwOi8vcHVybC5vcmcvZGMvZWxlbWVudHMvMS4xLyIgeG1sbnM6cGhvdG9zaG9wPSJodHRwOi8vbnMuYWRvYmUuY29tL3Bob3Rvc2hvcC8xLjAvIiB4bWxuczp4bXBNTT0iaHR0cDovL25zLmFkb2JlLmNvbS94YXAvMS4wL21tLyIgeG1sbnM6c3RFdnQ9Imh0dHA6Ly9ucy5hZG9iZS5jb20veGFwLzEuMC9zVHlwZS9SZXNvdXJjZUV2ZW50IyIgeG1wOkNyZWF0b3JUb29sPSJBZG9iZSBQaG90b3Nob3AgQ0MgMjAxOCAoV2luZG93cykiIHhtcDpDcmVhdGVEYXRlPSIyMDIwLTA1LTE0VDE1OjE1OjQ2LTA0OjAwIiB4bXA6TW9kaWZ5RGF0ZT0iMjAyMC0wNS0xNFQxNToxNzo1Ni0wNDowMCIgeG1wOk1ldGFkYXRhRGF0ZT0iMjAyMC0wNS0xNFQxNToxNzo1Ni0wNDowMCIgZGM6Zm9ybWF0PSJpbWFnZS9wbmciIHBob3Rvc2hvcDpDb2xvck1vZGU9IjMiIHBob3Rvc2hvcDpJQ0NQcm9maWxlPSJzUkdCIElFQzYxOTY2LTIuMSIgeG1wTU06SW5zdGFuY2VJRD0ieG1wLmlpZDpkMjhjNWFmNy04YWE3LTFlNDItYWM5Ni1kZDMwZDgzZTRkY2IiIHhtcE1NOkRvY3VtZW50SUQ9InhtcC5kaWQ6ZDI4YzVhZjctOGFhNy0xZTQyLWFjOTYtZGQzMGQ4M2U0ZGNiIiB4bXBNTTpPcmlnaW5hbERvY3VtZW50SUQ9InhtcC5kaWQ6ZDI4YzVhZjctOGFhNy0xZTQyLWFjOTYtZGQzMGQ4M2U0ZGNiIj4gPHhtcE1NOkhpc3Rvcnk+IDxyZGY6U2VxPiA8cmRmOmxpIHN0RXZ0OmFjdGlvbj0iY3JlYXRlZCIgc3RFdnQ6aW5zdGFuY2VJRD0ieG1wLmlpZDpkMjhjNWFmNy04YWE3LTFlNDItYWM5Ni1kZDMwZDgzZTRkY2IiIHN0RXZ0OndoZW49IjIwMjAtMDUtMTRUMTU6MTU6NDYtMDQ6MDAiIHN0RXZ0OnNvZnR3YXJlQWdlbnQ9IkFkb2JlIFBob3Rvc2hvcCBDQyAyMDE4IChXaW5kb3dzKSIvPiA8L3JkZjpTZXE+IDwveG1wTU06SGlzdG9yeT4gPC9yZGY6RGVzY3JpcHRpb24+IDwvcmRmOlJERj4gPC94OnhtcG1ldGE+IDw/eHBhY2tldCBlbmQ9InIiPz50Cq4dAAAEk0lEQVR4nO3dvW4jVQCG4c+QXQoqOqBCIDpooKDgBqDjBiih4Qq4gr0HREdBTU8HDQ0F0FBAQUWBQEj8aYU0FMYoMsnnrOPJHNvPI420G3k9J9nz5owzM/FqmqYAV3ts6QHAyAQChUCgEAgUAoFCIFAIBAqBQCEQKAQChUCgEAgUAoFCIFAIBAqBQCEQKAQChUCgEAgUAoFCIFAIBAqBQCEQKAQChUCgEAgUAoFCIFBcbP6wWq2uex+E1dbfl3ocp22o+TdN0yqxgkAlECgEAoVAoBAIFAKBQiBQCAQKgUAhECgEAoVAoBAIFAKBQiBQCAQKgUAhECgEAoVAoBAIFAKBQiBQCAQKgUAhECgEAoVAoBAIFAKB4mL3QzgDqySvJXk9yXNJ7iX5OclXST5N8tNiI1vaNE2ZpilZv0/CVdv//slCj+PwHk/ybpLvc/3/w8MkHyd5YeaxDDX//utCIGfrmSSf5/qv//b2Z5J3ZhzPUPNPIOft2STf5eZxXN7en2lMQ80/gZyviyRfZL84NttbM4xrqPm36WL1bxzeo3C3Q0V7qM9ryW8iPyZ5MclvB3zOoeaf9yjkNp7O+sX9yRPIboc+5LvNoc1Ih6BvLz2Au+AQa7cRJuOIpiRPJfn1gM93FYdYHKVVkueXHsTcBMJtPLn0AOYmEG7jl6UHMDeBsK+HWZ9sPGkuVtxt86JurvMgj/q8hx7Pvj5L8tfCY5idFYR9fbj0AO6ES00Wd9fnP97cY5/b25c5/DfXoeafa7HGcdeBJMkHe+x3s/2e5OUDjeOyoeafQMaxRCD3knyyx77/SPLGgcawbaj5J5BxLBFIsr5Z6kGSv2+432+TvHrA/W8bav4JZBxLBbLxUpKPsj50ump/3yR5L8n9GfZ92VDzz+Xu43jUST/X1+WJJK9kfU/6/azvQ/86yQ8z7W/bUPNvcy2WQJY3SiBLG2r+uVgRbkAgUAgECoFAIRAoBAKFQKC4fD/ITX++vtTjOG1Dzj8rCBSnfEfhqV7PdSyf10kcGVhBoBAIFAKBYo7XIMdyjMy8RpsHe70msoJAIRAoBAKFQKAQCBQCgUIgUMxxHmSUa3BG+zn8uRllHtyKFQQKgUAhEChO+X6QYzkG9psVB2YFgeLyCjLU70a94nF3bXtc17034K6PL+XYxj/k/LOCQCEQKAQChUCgEAgUAoFCIFAIBAqBQCEQKAQChUCgEAgUAoFCIFCc8h2Fx2LX/QlL31dy1qwgUAgECoFAIRAoBAKFQKAQCBQCgUIgUDiTfr3rzmA/6seXcuzjH4IVBAqBQCEQKAQChUCgEAgUAoHCeZCbm/t913edh1h6/2fJCgKFQKAQCBQCgUIgUAgECoFA4TzIeJyPGIgVBAqBQCEQKLwGubmlXxssvf+zZAWBQiBQCAQKgUAhECgEAoVAoBAIFAKBQiBQCAQKgUAhEChW0zT3L+yD42UFgUIgUAgECoFAIRAoBAKFQKAQCBQCgUIgUAgECoFAIRAoBAKFQKAQCBQCgUIgUAgECoFAIRAoBAKFQKAQCBQCgUIgUAgECoFA8Q9r4VpNcJ3SeAAAAABJRU5ErkJggg==;rotation=-30;" vertex="1" parent="1">
          <mxGeometry x="-340" y="110" width="220" height="220" as="geometry" />
        </mxCell>
        <mxCell id="fOmn5NKXTGddU6EdoQ0m-3" value="&lt;div&gt;Redis Server&lt;/div&gt;" style="sketch=0;aspect=fixed;html=1;points=[];align=center;image;fontSize=12;image=img/lib/mscae/Cache_Redis_Product.svg;" vertex="1" parent="1">
          <mxGeometry x="1000" y="160" width="107.14" height="90" as="geometry" />
        </mxCell>
        <mxCell id="fOmn5NKXTGddU6EdoQ0m-19" value="" style="group" vertex="1" connectable="0" parent="1">
          <mxGeometry x="232.505" y="202.505" width="518.75" height="90" as="geometry" />
        </mxCell>
        <mxCell id="fOmn5NKXTGddU6EdoQ0m-4" value="" style="shape=cylinder3;whiteSpace=wrap;html=1;boundedLbl=1;backgroundOutline=1;size=15;fontFamily=Courier New;rotation=-90;fillColor=#fff2cc;strokeColor=#d6b656;" vertex="1" parent="fOmn5NKXTGddU6EdoQ0m-19">
          <mxGeometry x="214.375" y="-214.375" width="90" height="518.75" as="geometry" />
        </mxCell>
        <mxCell id="fOmn5NKXTGddU6EdoQ0m-13" value="" style="shape=message;html=1;whiteSpace=wrap;html=1;outlineConnect=0;fontFamily=Courier New;" vertex="1" parent="fOmn5NKXTGddU6EdoQ0m-19">
          <mxGeometry x="57.495000000000005" y="25.495000000000005" width="60" height="40" as="geometry" />
        </mxCell>
        <mxCell id="fOmn5NKXTGddU6EdoQ0m-14" value="" style="shape=message;html=1;whiteSpace=wrap;html=1;outlineConnect=0;fontFamily=Courier New;" vertex="1" parent="fOmn5NKXTGddU6EdoQ0m-19">
          <mxGeometry x="132.495" y="25.495000000000005" width="60" height="40" as="geometry" />
        </mxCell>
        <mxCell id="fOmn5NKXTGddU6EdoQ0m-15" value="" style="shape=message;html=1;whiteSpace=wrap;html=1;outlineConnect=0;fontFamily=Courier New;" vertex="1" parent="fOmn5NKXTGddU6EdoQ0m-19">
          <mxGeometry x="207.495" y="24.995000000000005" width="60" height="40" as="geometry" />
        </mxCell>
        <mxCell id="fOmn5NKXTGddU6EdoQ0m-16" value="" style="shape=message;html=1;whiteSpace=wrap;html=1;outlineConnect=0;fontFamily=Courier New;" vertex="1" parent="fOmn5NKXTGddU6EdoQ0m-19">
          <mxGeometry x="287.495" y="24.995000000000005" width="60" height="40" as="geometry" />
        </mxCell>
        <mxCell id="fOmn5NKXTGddU6EdoQ0m-17" value="" style="shape=message;html=1;whiteSpace=wrap;html=1;outlineConnect=0;fontFamily=Courier New;" vertex="1" parent="fOmn5NKXTGddU6EdoQ0m-19">
          <mxGeometry x="367.495" y="25.495000000000005" width="60" height="40" as="geometry" />
        </mxCell>
        <mxCell id="fOmn5NKXTGddU6EdoQ0m-18" value="" style="shape=message;html=1;whiteSpace=wrap;html=1;outlineConnect=0;fontFamily=Courier New;" vertex="1" parent="fOmn5NKXTGddU6EdoQ0m-19">
          <mxGeometry x="442.495" y="25.495000000000005" width="60" height="40" as="geometry" />
        </mxCell>
        <mxCell id="fOmn5NKXTGddU6EdoQ0m-20" value="" style="group" vertex="1" connectable="0" parent="1">
          <mxGeometry x="232.505" y="304.505" width="518.75" height="90" as="geometry" />
        </mxCell>
        <mxCell id="fOmn5NKXTGddU6EdoQ0m-21" value="" style="shape=cylinder3;whiteSpace=wrap;html=1;boundedLbl=1;backgroundOutline=1;size=15;fontFamily=Courier New;rotation=-90;fillColor=#fff2cc;strokeColor=#d6b656;" vertex="1" parent="fOmn5NKXTGddU6EdoQ0m-20">
          <mxGeometry x="214.375" y="-214.375" width="90" height="518.75" as="geometry" />
        </mxCell>
        <mxCell id="fOmn5NKXTGddU6EdoQ0m-22" value="" style="shape=message;html=1;whiteSpace=wrap;html=1;outlineConnect=0;fontFamily=Courier New;" vertex="1" parent="fOmn5NKXTGddU6EdoQ0m-20">
          <mxGeometry x="57.495000000000005" y="25.495000000000005" width="60" height="40" as="geometry" />
        </mxCell>
        <mxCell id="fOmn5NKXTGddU6EdoQ0m-23" value="" style="shape=message;html=1;whiteSpace=wrap;html=1;outlineConnect=0;fontFamily=Courier New;" vertex="1" parent="fOmn5NKXTGddU6EdoQ0m-20">
          <mxGeometry x="132.495" y="25.495000000000005" width="60" height="40" as="geometry" />
        </mxCell>
        <mxCell id="fOmn5NKXTGddU6EdoQ0m-24" value="" style="shape=message;html=1;whiteSpace=wrap;html=1;outlineConnect=0;fontFamily=Courier New;" vertex="1" parent="fOmn5NKXTGddU6EdoQ0m-20">
          <mxGeometry x="207.495" y="24.995000000000005" width="60" height="40" as="geometry" />
        </mxCell>
        <mxCell id="fOmn5NKXTGddU6EdoQ0m-25" value="" style="shape=message;html=1;whiteSpace=wrap;html=1;outlineConnect=0;fontFamily=Courier New;" vertex="1" parent="fOmn5NKXTGddU6EdoQ0m-20">
          <mxGeometry x="287.495" y="24.995000000000005" width="60" height="40" as="geometry" />
        </mxCell>
        <mxCell id="fOmn5NKXTGddU6EdoQ0m-26" value="" style="shape=message;html=1;whiteSpace=wrap;html=1;outlineConnect=0;fontFamily=Courier New;" vertex="1" parent="fOmn5NKXTGddU6EdoQ0m-20">
          <mxGeometry x="367.495" y="25.495000000000005" width="60" height="40" as="geometry" />
        </mxCell>
        <mxCell id="fOmn5NKXTGddU6EdoQ0m-27" value="" style="shape=message;html=1;whiteSpace=wrap;html=1;outlineConnect=0;fontFamily=Courier New;" vertex="1" parent="fOmn5NKXTGddU6EdoQ0m-20">
          <mxGeometry x="442.495" y="25.495000000000005" width="60" height="40" as="geometry" />
        </mxCell>
        <mxCell id="fOmn5NKXTGddU6EdoQ0m-68" value="" style="group" vertex="1" connectable="0" parent="1">
          <mxGeometry x="232.505" y="407.505" width="518.75" height="90" as="geometry" />
        </mxCell>
        <mxCell id="fOmn5NKXTGddU6EdoQ0m-69" value="" style="shape=cylinder3;whiteSpace=wrap;html=1;boundedLbl=1;backgroundOutline=1;size=15;fontFamily=Courier New;rotation=-90;fillColor=#fff2cc;strokeColor=#d6b656;" vertex="1" parent="fOmn5NKXTGddU6EdoQ0m-68">
          <mxGeometry x="214.375" y="-214.375" width="90" height="518.75" as="geometry" />
        </mxCell>
        <mxCell id="fOmn5NKXTGddU6EdoQ0m-70" value="" style="shape=message;html=1;whiteSpace=wrap;html=1;outlineConnect=0;fontFamily=Courier New;" vertex="1" parent="fOmn5NKXTGddU6EdoQ0m-68">
          <mxGeometry x="57.495000000000005" y="25.495000000000005" width="60" height="40" as="geometry" />
        </mxCell>
        <mxCell id="fOmn5NKXTGddU6EdoQ0m-71" value="" style="shape=message;html=1;whiteSpace=wrap;html=1;outlineConnect=0;fontFamily=Courier New;" vertex="1" parent="fOmn5NKXTGddU6EdoQ0m-68">
          <mxGeometry x="132.495" y="25.495000000000005" width="60" height="40" as="geometry" />
        </mxCell>
        <mxCell id="fOmn5NKXTGddU6EdoQ0m-72" value="" style="shape=message;html=1;whiteSpace=wrap;html=1;outlineConnect=0;fontFamily=Courier New;" vertex="1" parent="fOmn5NKXTGddU6EdoQ0m-68">
          <mxGeometry x="207.495" y="24.995000000000005" width="60" height="40" as="geometry" />
        </mxCell>
        <mxCell id="fOmn5NKXTGddU6EdoQ0m-73" value="" style="shape=message;html=1;whiteSpace=wrap;html=1;outlineConnect=0;fontFamily=Courier New;" vertex="1" parent="fOmn5NKXTGddU6EdoQ0m-68">
          <mxGeometry x="287.495" y="24.995000000000005" width="60" height="40" as="geometry" />
        </mxCell>
        <mxCell id="fOmn5NKXTGddU6EdoQ0m-74" value="" style="shape=message;html=1;whiteSpace=wrap;html=1;outlineConnect=0;fontFamily=Courier New;" vertex="1" parent="fOmn5NKXTGddU6EdoQ0m-68">
          <mxGeometry x="367.495" y="25.495000000000005" width="60" height="40" as="geometry" />
        </mxCell>
        <mxCell id="fOmn5NKXTGddU6EdoQ0m-75" value="" style="shape=message;html=1;whiteSpace=wrap;html=1;outlineConnect=0;fontFamily=Courier New;" vertex="1" parent="fOmn5NKXTGddU6EdoQ0m-68">
          <mxGeometry x="442.495" y="25.495000000000005" width="60" height="40" as="geometry" />
        </mxCell>
        <mxCell id="fOmn5NKXTGddU6EdoQ0m-76" value="" style="group" vertex="1" connectable="0" parent="1">
          <mxGeometry x="232.505" y="509.505" width="518.75" height="90" as="geometry" />
        </mxCell>
        <mxCell id="fOmn5NKXTGddU6EdoQ0m-77" value="" style="shape=cylinder3;whiteSpace=wrap;html=1;boundedLbl=1;backgroundOutline=1;size=15;fontFamily=Courier New;rotation=-90;fillColor=#fff2cc;strokeColor=#d6b656;" vertex="1" parent="fOmn5NKXTGddU6EdoQ0m-76">
          <mxGeometry x="214.375" y="-214.375" width="90" height="518.75" as="geometry" />
        </mxCell>
        <mxCell id="fOmn5NKXTGddU6EdoQ0m-78" value="" style="shape=message;html=1;whiteSpace=wrap;html=1;outlineConnect=0;fontFamily=Courier New;" vertex="1" parent="fOmn5NKXTGddU6EdoQ0m-76">
          <mxGeometry x="57.495000000000005" y="25.495000000000005" width="60" height="40" as="geometry" />
        </mxCell>
        <mxCell id="fOmn5NKXTGddU6EdoQ0m-79" value="" style="shape=message;html=1;whiteSpace=wrap;html=1;outlineConnect=0;fontFamily=Courier New;" vertex="1" parent="fOmn5NKXTGddU6EdoQ0m-76">
          <mxGeometry x="132.495" y="25.495000000000005" width="60" height="40" as="geometry" />
        </mxCell>
        <mxCell id="fOmn5NKXTGddU6EdoQ0m-80" value="" style="shape=message;html=1;whiteSpace=wrap;html=1;outlineConnect=0;fontFamily=Courier New;" vertex="1" parent="fOmn5NKXTGddU6EdoQ0m-76">
          <mxGeometry x="207.495" y="24.995000000000005" width="60" height="40" as="geometry" />
        </mxCell>
        <mxCell id="fOmn5NKXTGddU6EdoQ0m-81" value="" style="shape=message;html=1;whiteSpace=wrap;html=1;outlineConnect=0;fontFamily=Courier New;" vertex="1" parent="fOmn5NKXTGddU6EdoQ0m-76">
          <mxGeometry x="287.495" y="24.995000000000005" width="60" height="40" as="geometry" />
        </mxCell>
        <mxCell id="fOmn5NKXTGddU6EdoQ0m-82" value="" style="shape=message;html=1;whiteSpace=wrap;html=1;outlineConnect=0;fontFamily=Courier New;" vertex="1" parent="fOmn5NKXTGddU6EdoQ0m-76">
          <mxGeometry x="367.495" y="25.495000000000005" width="60" height="40" as="geometry" />
        </mxCell>
        <mxCell id="fOmn5NKXTGddU6EdoQ0m-83" value="" style="shape=message;html=1;whiteSpace=wrap;html=1;outlineConnect=0;fontFamily=Courier New;" vertex="1" parent="fOmn5NKXTGddU6EdoQ0m-76">
          <mxGeometry x="442.495" y="25.495000000000005" width="60" height="40" as="geometry" />
        </mxCell>
      </root>
    </mxGraphModel>
  </diagram>
</mxfile>
